<mxfile host="Electron" modified="2024-02-27T02:14:28.199Z" agent="Mozilla/5.0 (Windows NT 10.0; Win64; x64) AppleWebKit/537.36 (KHTML, like Gecko) draw.io/21.1.2 Chrome/106.0.5249.199 Electron/21.4.3 Safari/537.36" etag="BU86qs2yfnVUWS5ab0Lj" version="21.1.2" type="device">
  <diagram name="Page-1" id="fEzSI9Wqr9M21snP-alJ">
    <mxGraphModel dx="1658" dy="1228" grid="0" gridSize="10" guides="0" tooltips="0" connect="1" arrows="1" fold="1" page="0" pageScale="1" pageWidth="850" pageHeight="1100" math="0" shadow="0">
      <root>
        <mxCell id="0" />
        <mxCell id="1" parent="0" />
        <mxCell id="NaWivCaxySY-6qhIOFJq-2" value="class_1&#xa;" style="shape=image;verticalLabelPosition=bottom;labelBackgroundColor=default;verticalAlign=top;aspect=fixed;imageAspect=0;image=data:image/png,iVBORw0KGgoAAAANSUhEUgAAAJYAAACWCAMAAAAL34HQAAAAAXNSR0IArs4c6QAAAARnQU1BAACxjwv8YQUAAAAzUExURQAAAAAAAAAAAAAAAAAAAAAAAAAAAAAAAAAAAAAAAAAAAAAAAAAAAAAAAAAAAAAAAAAAAKMFRskAAAAQdFJOUwAQIDBAUGBwgI+fr7/P3+8jGoKKAAAACXBIWXMAABcRAAAXEQHKJvM/AAABKUlEQVR4Xu3bzYrCQBBF4WRMYn5s7fd/2pHhuu3UbbACw/nWJXUoI64yAAAAAAAAAN3GeX20HPs6ajTRVOq5VcNpppc2t5UfzecYI7f6k3qwRUsDyk2fSbBrZ0jewQ5tjEk7WPjRkqSDuVlJB7Ozat300W/qyMo4WE9WwsH6smqZpx5aeq4zq1dZtPdEctY7TIvb0rPqoc1N+Vk18ju+ICvyR3FBVuRbvCAr8tCT9UGWgywHWQ6yHGQ5yHKQ5SDLQZaDLAdZDrIcZDnIcpDlIMtBloMsB1kOshxkOchykOUgy0GWgywHWQ6yHGQ5yHJEsjbNJtq1umXWbKK7VreMTw2neYZe7Jg0nWbW4hO31Hu9glVvy6ZXZ75uu1/wag4AAAAAAAD+iWH4BWryQFnR+d/9AAAAAElFTkSuQmCC;" parent="1" vertex="1">
          <mxGeometry x="100" y="158" width="150" height="150" as="geometry" />
        </mxCell>
        <mxCell id="NaWivCaxySY-6qhIOFJq-4" value="&lt;font style=&quot;font-size: 72px;&quot;&gt;&lt;b&gt;...&lt;/b&gt;&lt;/font&gt;" style="text;html=1;align=center;verticalAlign=middle;resizable=0;points=[];autosize=1;strokeColor=none;fillColor=none;" parent="1" vertex="1">
          <mxGeometry x="378" y="333" width="80" height="100" as="geometry" />
        </mxCell>
        <mxCell id="NaWivCaxySY-6qhIOFJq-6" value="" style="endArrow=classic;html=1;rounded=0;exitX=1;exitY=0.5;exitDx=0;exitDy=0;entryX=0;entryY=0.5;entryDx=0;entryDy=0;" parent="1" source="NaWivCaxySY-6qhIOFJq-2" target="4ZVyZrKuj5YRRAQkRX7n-5" edge="1">
          <mxGeometry width="50" height="50" relative="1" as="geometry">
            <mxPoint x="257" y="262" as="sourcePoint" />
            <mxPoint x="346" y="233" as="targetPoint" />
            <Array as="points">
              <mxPoint x="296" y="233" />
            </Array>
          </mxGeometry>
        </mxCell>
        <mxCell id="NaWivCaxySY-6qhIOFJq-7" value="" style="endArrow=classic;html=1;rounded=0;exitX=1;exitY=0.5;exitDx=0;exitDy=0;entryX=0;entryY=0.5;entryDx=0;entryDy=0;" parent="1" source="NaWivCaxySY-6qhIOFJq-2" target="4ZVyZrKuj5YRRAQkRX7n-1" edge="1">
          <mxGeometry width="50" height="50" relative="1" as="geometry">
            <mxPoint x="260" y="243" as="sourcePoint" />
            <mxPoint x="348" y="83" as="targetPoint" />
            <Array as="points">
              <mxPoint x="303" y="233" />
              <mxPoint x="303" y="83" />
            </Array>
          </mxGeometry>
        </mxCell>
        <mxCell id="4ZVyZrKuj5YRRAQkRX7n-1" value="dataset_1_01" style="shape=image;verticalLabelPosition=bottom;labelBackgroundColor=default;verticalAlign=top;aspect=fixed;imageAspect=0;image=data:image/png,iVBORw0KGgoAAAANSUhEUgAAAJYAAACWCAMAAAAL34HQAAAAAXNSR0IArs4c6QAAAARnQU1BAACxjwv8YQUAAAAzUExURQAAAAAAAAAAAAAAAAAAAAAAAAAAAAAAAAAAAAAAAAAAAAAAAAAAAAAAAAAAAAAAAAAAAKMFRskAAAAQdFJOUwAQIDBAUGBwgI+fr7/P3+8jGoKKAAAACXBIWXMAABcRAAAXEQHKJvM/AAADxklEQVR4Xu2Z0XKjMAxFQ6ANSUvI/39tDb4yRuAESZ5kd0bnafEGOGNkXUxPjuM4juM4juM4juM47+Zy/yAXSGzpHx+kh8QW19riWhJcS8L/qzX2b2PELY9o3THwBu64pWsdwbUkuJYEo1bX38ovagZMWs3PNDx2OCS6Cx8RY9K6xvHxjOPINPqDf2uxaLUYf9wwMNPNQ184UmLR+sb4Y8DARDPMQyMOlVi0vjC+0qJfl693BItWg/HHFQOBc8r+dcEJMZX8vBDDA2txHMBQ4BcjKkxaze80PH7jMJCea8BS9SatUPX9T589LdR7xFL1Ri1G+unMqm/IqKrVxnofqXNkNSekqtZcatPCRPt/Pb0lampd8LPm1OCy2WKQUVGrQcuaXGIC8bQ8TkUtPLmY0uhf2siup0UTFOucEkDZvKppxda6XAerUdm8qmkt9Q7QWcvXfUYtLYro5b2U3sZUVV9LCyWevUucbnFIFdmVtBDRY3qEAWpemqqvo0URvd4FkSsOV7T901ZbRws/4c8Li3Mnsqf0fLaTq6JFEc33Yed5eC+yZ+EnSV5FK0U0B6duTozdpDz7VbQ2LWsBl2d1lKfnPhW06CZ7K24/spGeT5K8glYe0e0yAef5inuRvbzwF5PcrpVFdHMd02ps748hOFJkZ6shf+Ev9TSzVhbR3XyxuJft5id7O1NkZ+em6wVKSW7WQr0PTUtbxCFUzAX1Fi7LI3vZ4E4UtiFWLbrJV3h+xNjCdWKg06m8MbvEfvOyaiGPh3yDyIAvii595gG7j8Cqle+iX4HyXj4HRHYzyKa12kW/AuWdPqiA3eZl00r/dQiUNz9p74XMpLVeVK9Bead7gp3mZdJii+oluAAacGKneVm0sjZwEEQTlm9i27wMWhTRAlDemzM3zcugRe8BEpDNvK9sykOvxSvkGIhs3lh481JrUUQLwTXodZrgzUutJa/3COaFVwBrXlotactaQNWnG4N189Jq8TV+HMzLpnmtdgJKLUlEcwqRvXqB1mmJIppTiOxV89JppSEV2E+mv2SBvEZUWvp6j2BenjQvlZauZS3gL2q8eWWfwjRafPblFCJ7aV4KLUVEcyiy091Bal4KLU1EcwqRnZqXXCtuTK0gsvl0UfOSa1nrPYKZ3yQr1z2qpY1oTuwGm54KXbGWpb/noNfjaCEuBrEWrwYtcVo2rQvf7sRa3X2swRB7QYtDYvr2NCHWeg+uJcG1JLiWBNeSINEav9+GROsTuJYE15LgWhJcS0JZy3Ecx3Ecx3Ecx3H+RU6nP7xymHM7DpzYAAAAAElFTkSuQmCC;" vertex="1" parent="1">
          <mxGeometry x="364" y="17" width="131" height="131" as="geometry" />
        </mxCell>
        <mxCell id="4ZVyZrKuj5YRRAQkRX7n-2" value="dataset_1_02" style="shape=image;verticalLabelPosition=bottom;labelBackgroundColor=default;verticalAlign=top;aspect=fixed;imageAspect=0;image=data:image/png,iVBORw0KGgoAAAANSUhEUgAAAJYAAACWCAMAAAAL34HQAAAAAXNSR0IArs4c6QAAAARnQU1BAACxjwv8YQUAAAAzUExURQAAAAAAAAAAAAAAAAAAAAAAAAAAAAAAAAAAAAAAAAAAAAAAAAAAAAAAAAAAAAAAAAAAAKMFRskAAAAQdFJOUwAQIDBAUGBwgI+fr7/P3+8jGoKKAAAACXBIWXMAABcRAAAXEQHKJvM/AAADxklEQVR4Xu2Z0XKjMAxFQ6ANSUvI/39tDb4yRuAESZ5kd0bnafEGOGNkXUxPjuM4juM4juM4juM47+Zy/yAXSGzpHx+kh8QW19riWhJcS8L/qzX2b2PELY9o3THwBu64pWsdwbUkuJYEo1bX38ovagZMWs3PNDx2OCS6Cx8RY9K6xvHxjOPINPqDf2uxaLUYf9wwMNPNQ184UmLR+sb4Y8DARDPMQyMOlVi0vjC+0qJfl693BItWg/HHFQOBc8r+dcEJMZX8vBDDA2txHMBQ4BcjKkxaze80PH7jMJCea8BS9SatUPX9T589LdR7xFL1Ri1G+unMqm/IqKrVxnofqXNkNSekqtZcatPCRPt/Pb0lampd8LPm1OCy2WKQUVGrQcuaXGIC8bQ8TkUtPLmY0uhf2siup0UTFOucEkDZvKppxda6XAerUdm8qmkt9Q7QWcvXfUYtLYro5b2U3sZUVV9LCyWevUucbnFIFdmVtBDRY3qEAWpemqqvo0URvd4FkSsOV7T901ZbRws/4c8Li3Mnsqf0fLaTq6JFEc33Yed5eC+yZ+EnSV5FK0U0B6duTozdpDz7VbQ2LWsBl2d1lKfnPhW06CZ7K24/spGeT5K8glYe0e0yAef5inuRvbzwF5PcrpVFdHMd02ps748hOFJkZ6shf+Ev9TSzVhbR3XyxuJft5id7O1NkZ+em6wVKSW7WQr0PTUtbxCFUzAX1Fi7LI3vZ4E4UtiFWLbrJV3h+xNjCdWKg06m8MbvEfvOyaiGPh3yDyIAvii595gG7j8Cqle+iX4HyXj4HRHYzyKa12kW/AuWdPqiA3eZl00r/dQiUNz9p74XMpLVeVK9Bead7gp3mZdJii+oluAAacGKneVm0sjZwEEQTlm9i27wMWhTRAlDemzM3zcugRe8BEpDNvK9sykOvxSvkGIhs3lh481JrUUQLwTXodZrgzUutJa/3COaFVwBrXlotactaQNWnG4N189Jq8TV+HMzLpnmtdgJKLUlEcwqRvXqB1mmJIppTiOxV89JppSEV2E+mv2SBvEZUWvp6j2BenjQvlZauZS3gL2q8eWWfwjRafPblFCJ7aV4KLUVEcyiy091Bal4KLU1EcwqRnZqXXCtuTK0gsvl0UfOSa1nrPYKZ3yQr1z2qpY1oTuwGm54KXbGWpb/noNfjaCEuBrEWrwYtcVo2rQvf7sRa3X2swRB7QYtDYvr2NCHWeg+uJcG1JLiWBNeSINEav9+GROsTuJYE15LgWhJcS0JZy3Ecx3Ecx3Ecx3H+RU6nP7xymHM7DpzYAAAAAElFTkSuQmCC;" vertex="1" parent="1">
          <mxGeometry x="364" y="-116" width="131" height="131" as="geometry" />
        </mxCell>
        <mxCell id="4ZVyZrKuj5YRRAQkRX7n-4" value="" style="endArrow=classic;html=1;rounded=0;exitX=1;exitY=0.5;exitDx=0;exitDy=0;entryX=0;entryY=0.5;entryDx=0;entryDy=0;" edge="1" parent="1" source="NaWivCaxySY-6qhIOFJq-2" target="4ZVyZrKuj5YRRAQkRX7n-2">
          <mxGeometry width="50" height="50" relative="1" as="geometry">
            <mxPoint x="362" y="136" as="sourcePoint" />
            <mxPoint x="412" y="86" as="targetPoint" />
            <Array as="points">
              <mxPoint x="303" y="233" />
              <mxPoint x="303" y="-50" />
            </Array>
          </mxGeometry>
        </mxCell>
        <mxCell id="4ZVyZrKuj5YRRAQkRX7n-5" value="dataset_2_01" style="shape=image;verticalLabelPosition=bottom;labelBackgroundColor=default;verticalAlign=top;aspect=fixed;imageAspect=0;image=data:image/png,iVBORw0KGgoAAAANSUhEUgAAAJYAAACWCAMAAAAL34HQAAAAAXNSR0IArs4c6QAAAARnQU1BAACxjwv8YQUAAAAzUExURQAAAAAAAAAAAAAAAAAAAAAAAAAAAAAAAAAAAAAAAAAAAAAAAAAAAAAAAAAAAAAAAAAAAKMFRskAAAAQdFJOUwAQIDBAUGBwgI+fr7/P3+8jGoKKAAAACXBIWXMAABcRAAAXEQHKJvM/AAADxklEQVR4Xu2Z0XKjMAxFQ6ANSUvI/39tDb4yRuAESZ5kd0bnafEGOGNkXUxPjuM4juM4juM4juM47+Zy/yAXSGzpHx+kh8QW19riWhJcS8L/qzX2b2PELY9o3THwBu64pWsdwbUkuJYEo1bX38ovagZMWs3PNDx2OCS6Cx8RY9K6xvHxjOPINPqDf2uxaLUYf9wwMNPNQ184UmLR+sb4Y8DARDPMQyMOlVi0vjC+0qJfl693BItWg/HHFQOBc8r+dcEJMZX8vBDDA2txHMBQ4BcjKkxaze80PH7jMJCea8BS9SatUPX9T589LdR7xFL1Ri1G+unMqm/IqKrVxnofqXNkNSekqtZcatPCRPt/Pb0lampd8LPm1OCy2WKQUVGrQcuaXGIC8bQ8TkUtPLmY0uhf2siup0UTFOucEkDZvKppxda6XAerUdm8qmkt9Q7QWcvXfUYtLYro5b2U3sZUVV9LCyWevUucbnFIFdmVtBDRY3qEAWpemqqvo0URvd4FkSsOV7T901ZbRws/4c8Li3Mnsqf0fLaTq6JFEc33Yed5eC+yZ+EnSV5FK0U0B6duTozdpDz7VbQ2LWsBl2d1lKfnPhW06CZ7K24/spGeT5K8glYe0e0yAef5inuRvbzwF5PcrpVFdHMd02ps748hOFJkZ6shf+Ev9TSzVhbR3XyxuJft5id7O1NkZ+em6wVKSW7WQr0PTUtbxCFUzAX1Fi7LI3vZ4E4UtiFWLbrJV3h+xNjCdWKg06m8MbvEfvOyaiGPh3yDyIAvii595gG7j8Cqle+iX4HyXj4HRHYzyKa12kW/AuWdPqiA3eZl00r/dQiUNz9p74XMpLVeVK9Bead7gp3mZdJii+oluAAacGKneVm0sjZwEEQTlm9i27wMWhTRAlDemzM3zcugRe8BEpDNvK9sykOvxSvkGIhs3lh481JrUUQLwTXodZrgzUutJa/3COaFVwBrXlotactaQNWnG4N189Jq8TV+HMzLpnmtdgJKLUlEcwqRvXqB1mmJIppTiOxV89JppSEV2E+mv2SBvEZUWvp6j2BenjQvlZauZS3gL2q8eWWfwjRafPblFCJ7aV4KLUVEcyiy091Bal4KLU1EcwqRnZqXXCtuTK0gsvl0UfOSa1nrPYKZ3yQr1z2qpY1oTuwGm54KXbGWpb/noNfjaCEuBrEWrwYtcVo2rQvf7sRa3X2swRB7QYtDYvr2NCHWeg+uJcG1JLiWBNeSINEav9+GROsTuJYE15LgWhJcS0JZy3Ecx3Ecx3Ecx3H+RU6nP7xymHM7DpzYAAAAAElFTkSuQmCC;" vertex="1" parent="1">
          <mxGeometry x="362" y="167" width="131" height="131" as="geometry" />
        </mxCell>
        <mxCell id="4ZVyZrKuj5YRRAQkRX7n-13" value="class_2&#xa;" style="shape=image;verticalLabelPosition=bottom;labelBackgroundColor=default;verticalAlign=top;aspect=fixed;imageAspect=0;image=data:image/png,iVBORw0KGgoAAAANSUhEUgAAAJYAAACWCAMAAAAL34HQAAAAAXNSR0IArs4c6QAAAARnQU1BAACxjwv8YQUAAAAzUExURQAAAAAAAAAAAAAAAAAAAAAAAAAAAAAAAAAAAAAAAAAAAAAAAAAAAAAAAAAAAAAAAAAAAKMFRskAAAAQdFJOUwAQIDBAUGBwgI+fr7/P3+8jGoKKAAAACXBIWXMAABcRAAAXEQHKJvM/AAABKUlEQVR4Xu3bzYrCQBBF4WRMYn5s7fd/2pHhuu3UbbACw/nWJXUoI64yAAAAAAAAAN3GeX20HPs6ajTRVOq5VcNpppc2t5UfzecYI7f6k3qwRUsDyk2fSbBrZ0jewQ5tjEk7WPjRkqSDuVlJB7Ozat300W/qyMo4WE9WwsH6smqZpx5aeq4zq1dZtPdEctY7TIvb0rPqoc1N+Vk18ju+ICvyR3FBVuRbvCAr8tCT9UGWgywHWQ6yHGQ5yHKQ5SDLQZaDLAdZDrIcZDnIcpDlIMtBloMsB1kOshxkOchykOUgy0GWgywHWQ6yHGQ5yHJEsjbNJtq1umXWbKK7VreMTw2neYZe7Jg0nWbW4hO31Hu9glVvy6ZXZ75uu1/wag4AAAAAAAD+iWH4BWryQFnR+d/9AAAAAElFTkSuQmCC;" vertex="1" parent="1">
          <mxGeometry x="528" y="156" width="150" height="150" as="geometry" />
        </mxCell>
        <mxCell id="4ZVyZrKuj5YRRAQkRX7n-14" value="&lt;font style=&quot;font-size: 72px;&quot;&gt;&lt;b&gt;...&lt;/b&gt;&lt;/font&gt;" style="text;html=1;align=center;verticalAlign=middle;resizable=0;points=[];autosize=1;strokeColor=none;fillColor=none;" vertex="1" parent="1">
          <mxGeometry x="806" y="331" width="80" height="100" as="geometry" />
        </mxCell>
        <mxCell id="4ZVyZrKuj5YRRAQkRX7n-15" value="" style="endArrow=classic;html=1;rounded=0;exitX=1;exitY=0.5;exitDx=0;exitDy=0;entryX=0;entryY=0.5;entryDx=0;entryDy=0;" edge="1" parent="1" source="4ZVyZrKuj5YRRAQkRX7n-13" target="4ZVyZrKuj5YRRAQkRX7n-20">
          <mxGeometry width="50" height="50" relative="1" as="geometry">
            <mxPoint x="685" y="260" as="sourcePoint" />
            <mxPoint x="774" y="231" as="targetPoint" />
            <Array as="points">
              <mxPoint x="724" y="231" />
            </Array>
          </mxGeometry>
        </mxCell>
        <mxCell id="4ZVyZrKuj5YRRAQkRX7n-16" value="" style="endArrow=classic;html=1;rounded=0;exitX=1;exitY=0.5;exitDx=0;exitDy=0;entryX=0;entryY=0.5;entryDx=0;entryDy=0;" edge="1" parent="1" source="4ZVyZrKuj5YRRAQkRX7n-13" target="4ZVyZrKuj5YRRAQkRX7n-17">
          <mxGeometry width="50" height="50" relative="1" as="geometry">
            <mxPoint x="688" y="241" as="sourcePoint" />
            <mxPoint x="776" y="81" as="targetPoint" />
            <Array as="points">
              <mxPoint x="731" y="231" />
              <mxPoint x="731" y="81" />
            </Array>
          </mxGeometry>
        </mxCell>
        <mxCell id="4ZVyZrKuj5YRRAQkRX7n-17" value="dataset_1_01" style="shape=image;verticalLabelPosition=bottom;labelBackgroundColor=default;verticalAlign=top;aspect=fixed;imageAspect=0;image=data:image/png,iVBORw0KGgoAAAANSUhEUgAAAJYAAACWCAMAAAAL34HQAAAAAXNSR0IArs4c6QAAAARnQU1BAACxjwv8YQUAAAAzUExURQAAAAAAAAAAAAAAAAAAAAAAAAAAAAAAAAAAAAAAAAAAAAAAAAAAAAAAAAAAAAAAAAAAAKMFRskAAAAQdFJOUwAQIDBAUGBwgI+fr7/P3+8jGoKKAAAACXBIWXMAABcRAAAXEQHKJvM/AAADxklEQVR4Xu2Z0XKjMAxFQ6ANSUvI/39tDb4yRuAESZ5kd0bnafEGOGNkXUxPjuM4juM4juM4juM47+Zy/yAXSGzpHx+kh8QW19riWhJcS8L/qzX2b2PELY9o3THwBu64pWsdwbUkuJYEo1bX38ovagZMWs3PNDx2OCS6Cx8RY9K6xvHxjOPINPqDf2uxaLUYf9wwMNPNQ184UmLR+sb4Y8DARDPMQyMOlVi0vjC+0qJfl693BItWg/HHFQOBc8r+dcEJMZX8vBDDA2txHMBQ4BcjKkxaze80PH7jMJCea8BS9SatUPX9T589LdR7xFL1Ri1G+unMqm/IqKrVxnofqXNkNSekqtZcatPCRPt/Pb0lampd8LPm1OCy2WKQUVGrQcuaXGIC8bQ8TkUtPLmY0uhf2siup0UTFOucEkDZvKppxda6XAerUdm8qmkt9Q7QWcvXfUYtLYro5b2U3sZUVV9LCyWevUucbnFIFdmVtBDRY3qEAWpemqqvo0URvd4FkSsOV7T901ZbRws/4c8Li3Mnsqf0fLaTq6JFEc33Yed5eC+yZ+EnSV5FK0U0B6duTozdpDz7VbQ2LWsBl2d1lKfnPhW06CZ7K24/spGeT5K8glYe0e0yAef5inuRvbzwF5PcrpVFdHMd02ps748hOFJkZ6shf+Ev9TSzVhbR3XyxuJft5id7O1NkZ+em6wVKSW7WQr0PTUtbxCFUzAX1Fi7LI3vZ4E4UtiFWLbrJV3h+xNjCdWKg06m8MbvEfvOyaiGPh3yDyIAvii595gG7j8Cqle+iX4HyXj4HRHYzyKa12kW/AuWdPqiA3eZl00r/dQiUNz9p74XMpLVeVK9Bead7gp3mZdJii+oluAAacGKneVm0sjZwEEQTlm9i27wMWhTRAlDemzM3zcugRe8BEpDNvK9sykOvxSvkGIhs3lh481JrUUQLwTXodZrgzUutJa/3COaFVwBrXlotactaQNWnG4N189Jq8TV+HMzLpnmtdgJKLUlEcwqRvXqB1mmJIppTiOxV89JppSEV2E+mv2SBvEZUWvp6j2BenjQvlZauZS3gL2q8eWWfwjRafPblFCJ7aV4KLUVEcyiy091Bal4KLU1EcwqRnZqXXCtuTK0gsvl0UfOSa1nrPYKZ3yQr1z2qpY1oTuwGm54KXbGWpb/noNfjaCEuBrEWrwYtcVo2rQvf7sRa3X2swRB7QYtDYvr2NCHWeg+uJcG1JLiWBNeSINEav9+GROsTuJYE15LgWhJcS0JZy3Ecx3Ecx3Ecx3H+RU6nP7xymHM7DpzYAAAAAElFTkSuQmCC;" vertex="1" parent="1">
          <mxGeometry x="792" y="15" width="131" height="131" as="geometry" />
        </mxCell>
        <mxCell id="4ZVyZrKuj5YRRAQkRX7n-18" value="dataset_1_02" style="shape=image;verticalLabelPosition=bottom;labelBackgroundColor=default;verticalAlign=top;aspect=fixed;imageAspect=0;image=data:image/png,iVBORw0KGgoAAAANSUhEUgAAAJYAAACWCAMAAAAL34HQAAAAAXNSR0IArs4c6QAAAARnQU1BAACxjwv8YQUAAAAzUExURQAAAAAAAAAAAAAAAAAAAAAAAAAAAAAAAAAAAAAAAAAAAAAAAAAAAAAAAAAAAAAAAAAAAKMFRskAAAAQdFJOUwAQIDBAUGBwgI+fr7/P3+8jGoKKAAAACXBIWXMAABcRAAAXEQHKJvM/AAADxklEQVR4Xu2Z0XKjMAxFQ6ANSUvI/39tDb4yRuAESZ5kd0bnafEGOGNkXUxPjuM4juM4juM4juM47+Zy/yAXSGzpHx+kh8QW19riWhJcS8L/qzX2b2PELY9o3THwBu64pWsdwbUkuJYEo1bX38ovagZMWs3PNDx2OCS6Cx8RY9K6xvHxjOPINPqDf2uxaLUYf9wwMNPNQ184UmLR+sb4Y8DARDPMQyMOlVi0vjC+0qJfl693BItWg/HHFQOBc8r+dcEJMZX8vBDDA2txHMBQ4BcjKkxaze80PH7jMJCea8BS9SatUPX9T589LdR7xFL1Ri1G+unMqm/IqKrVxnofqXNkNSekqtZcatPCRPt/Pb0lampd8LPm1OCy2WKQUVGrQcuaXGIC8bQ8TkUtPLmY0uhf2siup0UTFOucEkDZvKppxda6XAerUdm8qmkt9Q7QWcvXfUYtLYro5b2U3sZUVV9LCyWevUucbnFIFdmVtBDRY3qEAWpemqqvo0URvd4FkSsOV7T901ZbRws/4c8Li3Mnsqf0fLaTq6JFEc33Yed5eC+yZ+EnSV5FK0U0B6duTozdpDz7VbQ2LWsBl2d1lKfnPhW06CZ7K24/spGeT5K8glYe0e0yAef5inuRvbzwF5PcrpVFdHMd02ps748hOFJkZ6shf+Ev9TSzVhbR3XyxuJft5id7O1NkZ+em6wVKSW7WQr0PTUtbxCFUzAX1Fi7LI3vZ4E4UtiFWLbrJV3h+xNjCdWKg06m8MbvEfvOyaiGPh3yDyIAvii595gG7j8Cqle+iX4HyXj4HRHYzyKa12kW/AuWdPqiA3eZl00r/dQiUNz9p74XMpLVeVK9Bead7gp3mZdJii+oluAAacGKneVm0sjZwEEQTlm9i27wMWhTRAlDemzM3zcugRe8BEpDNvK9sykOvxSvkGIhs3lh481JrUUQLwTXodZrgzUutJa/3COaFVwBrXlotactaQNWnG4N189Jq8TV+HMzLpnmtdgJKLUlEcwqRvXqB1mmJIppTiOxV89JppSEV2E+mv2SBvEZUWvp6j2BenjQvlZauZS3gL2q8eWWfwjRafPblFCJ7aV4KLUVEcyiy091Bal4KLU1EcwqRnZqXXCtuTK0gsvl0UfOSa1nrPYKZ3yQr1z2qpY1oTuwGm54KXbGWpb/noNfjaCEuBrEWrwYtcVo2rQvf7sRa3X2swRB7QYtDYvr2NCHWeg+uJcG1JLiWBNeSINEav9+GROsTuJYE15LgWhJcS0JZy3Ecx3Ecx3Ecx3H+RU6nP7xymHM7DpzYAAAAAElFTkSuQmCC;" vertex="1" parent="1">
          <mxGeometry x="792" y="-118" width="131" height="131" as="geometry" />
        </mxCell>
        <mxCell id="4ZVyZrKuj5YRRAQkRX7n-19" value="" style="endArrow=classic;html=1;rounded=0;exitX=1;exitY=0.5;exitDx=0;exitDy=0;entryX=0;entryY=0.5;entryDx=0;entryDy=0;" edge="1" parent="1" source="4ZVyZrKuj5YRRAQkRX7n-13" target="4ZVyZrKuj5YRRAQkRX7n-18">
          <mxGeometry width="50" height="50" relative="1" as="geometry">
            <mxPoint x="790" y="134" as="sourcePoint" />
            <mxPoint x="840" y="84" as="targetPoint" />
            <Array as="points">
              <mxPoint x="731" y="231" />
              <mxPoint x="731" y="-52" />
            </Array>
          </mxGeometry>
        </mxCell>
        <mxCell id="4ZVyZrKuj5YRRAQkRX7n-20" value="dataset_2_01" style="shape=image;verticalLabelPosition=bottom;labelBackgroundColor=default;verticalAlign=top;aspect=fixed;imageAspect=0;image=data:image/png,iVBORw0KGgoAAAANSUhEUgAAAJYAAACWCAMAAAAL34HQAAAAAXNSR0IArs4c6QAAAARnQU1BAACxjwv8YQUAAAAzUExURQAAAAAAAAAAAAAAAAAAAAAAAAAAAAAAAAAAAAAAAAAAAAAAAAAAAAAAAAAAAAAAAAAAAKMFRskAAAAQdFJOUwAQIDBAUGBwgI+fr7/P3+8jGoKKAAAACXBIWXMAABcRAAAXEQHKJvM/AAADxklEQVR4Xu2Z0XKjMAxFQ6ANSUvI/39tDb4yRuAESZ5kd0bnafEGOGNkXUxPjuM4juM4juM4juM47+Zy/yAXSGzpHx+kh8QW19riWhJcS8L/qzX2b2PELY9o3THwBu64pWsdwbUkuJYEo1bX38ovagZMWs3PNDx2OCS6Cx8RY9K6xvHxjOPINPqDf2uxaLUYf9wwMNPNQ184UmLR+sb4Y8DARDPMQyMOlVi0vjC+0qJfl693BItWg/HHFQOBc8r+dcEJMZX8vBDDA2txHMBQ4BcjKkxaze80PH7jMJCea8BS9SatUPX9T589LdR7xFL1Ri1G+unMqm/IqKrVxnofqXNkNSekqtZcatPCRPt/Pb0lampd8LPm1OCy2WKQUVGrQcuaXGIC8bQ8TkUtPLmY0uhf2siup0UTFOucEkDZvKppxda6XAerUdm8qmkt9Q7QWcvXfUYtLYro5b2U3sZUVV9LCyWevUucbnFIFdmVtBDRY3qEAWpemqqvo0URvd4FkSsOV7T901ZbRws/4c8Li3Mnsqf0fLaTq6JFEc33Yed5eC+yZ+EnSV5FK0U0B6duTozdpDz7VbQ2LWsBl2d1lKfnPhW06CZ7K24/spGeT5K8glYe0e0yAef5inuRvbzwF5PcrpVFdHMd02ps748hOFJkZ6shf+Ev9TSzVhbR3XyxuJft5id7O1NkZ+em6wVKSW7WQr0PTUtbxCFUzAX1Fi7LI3vZ4E4UtiFWLbrJV3h+xNjCdWKg06m8MbvEfvOyaiGPh3yDyIAvii595gG7j8Cqle+iX4HyXj4HRHYzyKa12kW/AuWdPqiA3eZl00r/dQiUNz9p74XMpLVeVK9Bead7gp3mZdJii+oluAAacGKneVm0sjZwEEQTlm9i27wMWhTRAlDemzM3zcugRe8BEpDNvK9sykOvxSvkGIhs3lh481JrUUQLwTXodZrgzUutJa/3COaFVwBrXlotactaQNWnG4N189Jq8TV+HMzLpnmtdgJKLUlEcwqRvXqB1mmJIppTiOxV89JppSEV2E+mv2SBvEZUWvp6j2BenjQvlZauZS3gL2q8eWWfwjRafPblFCJ7aV4KLUVEcyiy091Bal4KLU1EcwqRnZqXXCtuTK0gsvl0UfOSa1nrPYKZ3yQr1z2qpY1oTuwGm54KXbGWpb/noNfjaCEuBrEWrwYtcVo2rQvf7sRa3X2swRB7QYtDYvr2NCHWeg+uJcG1JLiWBNeSINEav9+GROsTuJYE15LgWhJcS0JZy3Ecx3Ecx3Ecx3H+RU6nP7xymHM7DpzYAAAAAElFTkSuQmCC;" vertex="1" parent="1">
          <mxGeometry x="790" y="165" width="131" height="131" as="geometry" />
        </mxCell>
      </root>
    </mxGraphModel>
  </diagram>
</mxfile>
